<?xml version="1.0" encoding="UTF-8" standalone="no"?>
<!-- Created with Inkscape (http://www.inkscape.org/) -->

<svg
   width="139.59074mm"
   height="145.21742mm"
   viewBox="0 0 139.59074 145.21742"
   version="1.1"
   id="svg1"
   xml:space="preserve"
   inkscape:version="1.4.2 (2aeb623e1d, 2025-05-12)"
   sodipodi:docname="purocine.svg"
   xmlns:inkscape="http://www.inkscape.org/namespaces/inkscape"
   xmlns:sodipodi="http://sodipodi.sourceforge.net/DTD/sodipodi-0.dtd"
   xmlns="http://www.w3.org/2000/svg"
   xmlns:svg="http://www.w3.org/2000/svg"><sodipodi:namedview
     id="namedview1"
     pagecolor="#505050"
     bordercolor="#eeeeee"
     borderopacity="1"
     inkscape:showpageshadow="0"
     inkscape:pageopacity="0"
     inkscape:pagecheckerboard="0"
     inkscape:deskcolor="#505050"
     inkscape:document-units="mm"
     inkscape:zoom="0.68166189"
     inkscape:cx="145.23329"
     inkscape:cy="355.74822"
     inkscape:window-width="1600"
     inkscape:window-height="863"
     inkscape:window-x="0"
     inkscape:window-y="0"
     inkscape:window-maximized="1"
     inkscape:current-layer="layer1" /><defs
     id="defs1" /><g
     inkscape:label="Layer 1"
     inkscape:groupmode="layer"
     id="layer1"
     transform="translate(-40.825821,-17.53714)"><circle
       style="fill:#ffcc00;stroke-width:0.264583"
       id="path12"
       cx="110.62119"
       cy="87.332512"
       r="69.795372" /><path
       style="fill:#333333;stroke-width:0.264583"
       d="m 87.41539,156.44199 42.12955,-7.8221 -3.97966,-38.97327 -6.4498,-1.23507 -19.898324,2.05845 z"
       id="path11" /><path
       style="fill:#808080;stroke-width:0.28228"
       d="m 98.976853,91.333808 -0.485179,-9.940616 2.522936,-5.412113 3.88145,-5.080757 9.02436,-1.325415 8.63621,5.191207 3.49331,5.191212 -0.19408,9.609258 -26.393824,3.976247 z"
       id="path8" /><path
       style="fill:#ffffff;stroke-width:0.264583"
       d="m 58.528515,91.669514 0.891996,-3.567975 5.695037,-5.351962 2.881825,-1.783988 3.705204,-0.137228 0.480306,-1.097839 -1.372298,-1.578144 -2.881826,-0.754764 -4.528584,0.96061 -0.68615,-2.058448 0.754764,-3.499361 1.921216,-5.214731 0.617535,-5.420579 -0.754764,-0.960607 h -1.166452 l -1.029224,1.578142 -2.538751,7.616253 -0.754764,0.480306 -0.891995,-0.617535 0.343075,-5.077502 -1.715373,-6.792875 -1.166453,-0.411692 -1.372299,0.891995 0.617535,9.743316 -0.137231,1.440915 -0.686149,0.137229 0.205845,-2.675983 -1.440912,-8.439631 -1.23507,-0.205846 -1.235067,0.823378 0.27446,8.302405 0.411689,3.087669 -0.54892,0.205846 -1.578142,-7.822099 -0.617535,-0.27446 -1.097838,0.27446 -0.548921,1.646759 0.96061,7.684867 -0.411689,2.264294 0.686149,8.096557 0.205846,2.401522 -0.686149,8.027945 2.195676,-0.960609 5.626423,-0.205843 z"
       id="path1" /><path
       style="fill:#808080;stroke-width:0.264583"
       d="m 48.167665,90.846136 v 2.881826 l 1.921216,-1.097838 6.243958,-0.343075 2.264291,-0.548918 -0.823378,7.616254 -3.224901,1.029225 -7.68487,0.34307 -0.617535,-3.156283 z"
       id="path2" /><path
       style="fill:#1a1a1a;stroke-width:0.264583"
       d="m 70.810585,113.35183 -11.664535,1.92121 -0.27446,-17.016494 -1.097838,-0.823378 -0.137232,1.783988 -10.978382,1.509524 -0.411692,-2.881823 -3.430743,23.740763 3.430743,5.21473 26.897044,8.91994 -4.116893,14.82081 -9.606086,12.21346 26.210892,-3.43075 7.822099,-7.54764 10.017778,-49.2655 -2.60737,3.7052 -2.881824,1.09785 -20.996161,-0.27446 -1.921216,-0.54893 z"
       id="path3" /><path
       style="fill:#808080;stroke-width:0.264583"
       d="m 103.33405,102.92236 11.66453,6.99872 4.94028,-3.01906 2.19567,-4.25412 -1.3723,9.33163 -4.11689,-2.47014 -1.23507,1.64676 -10.29223,3.7052 -3.15629,-4.52858 z"
       id="path4" /><path
       style="fill:#ffffff;stroke-width:0.264583"
       d="m 100.31499,90.297218 -1.372294,-1.646758 -0.96061,0.137229 0.137232,4.528584 1.097838,1.372298 1.509524,5.077503 1.09784,-0.548918 1.64676,3.430744 v 0.54892 l 11.25284,6.72426 5.21474,-2.88182 4.25412,-8.508253 1.23507,-1.372299 c 0,0 0.54892,-2.470137 0.54892,-3.430746 0,-0.960607 0.27446,-6.312572 0.27446,-6.312572 l -0.54892,-0.274458 -1.78399,1.783988 v -7.822099 l -2.05844,-4.665816 -3.70521,-2.058445 -1.09784,0.960607 -11.39007,-1.097839 -4.52859,4.391356 1.23507,4.528582 z"
       id="path5" /><path
       style="fill:#ffffff;stroke-width:0.264583"
       d="m 167.50218,96.382664 -2.27748,-9.653421 -4.39136,-4.803044 -2.47014,-1.097838 h -2.47013 l -0.41169,-1.372299 3.43074,-1.921216 4.52859,1.783987 0.13723,-0.411691 -0.96061,-4.391353 -2.40152,-6.792876 0.0686,-3.293515 1.3723,-0.27446 1.71537,3.019055 2.53876,5.557808 0.75476,0.06861 -0.54892,-2.881825 -0.27446,-5.832266 1.23507,-0.823381 h 0.96061 l 0.89199,1.303684 0.96061,7.753485 0.34307,0.06861 -0.34307,-6.861489 0.82338,-0.343075 1.3723,0.411689 0.61753,1.783988 0.68615,6.312572 0.54892,0.205843 0.68615,-4.803042 0.96061,-0.137232 0.68615,0.823381 -0.13723,5.489191 0.13723,3.567975 -0.13723,8.165174 0.0201,9.445557 z"
       id="path6"
       sodipodi:nodetypes="ccccccccccccccccccccccccccccccccccccc" /><path
       style="fill:#000000;stroke-width:0.264583"
       d="m 176.68338,91.257825 -10.22362,1.166456 0.75477,3.705203 9.46885,-0.891992 z"
       id="path7" /><path
       style="fill:#808080;stroke-width:0.264583"
       d="m 167.43585,96.356878 9.07287,0.09704 -0.38814,7.423262 -8.15104,-1.79517 z"
       id="path9" /><path
       style="fill:#1a1a1a;stroke-width:0.264583"
       d="m 167.48436,101.40276 9.70362,2.81404 -0.77629,25.90865 -27.84937,3.4933 2.25324,8.13965 -22.50568,5.62642 -6.17535,-12.21345 -1.23506,-22.78015 1.23506,-10.01778 1.78399,3.15629 6.58703,3.01905 14.40913,-1.23506 8.23379,8.23378 12.76238,2.7446 0.9606,-2.33291 z"
       id="path10" /></g></svg>
